<svg viewBox="0 0 200 200" xmlns="http://www.w3.org/2000/svg"
    stroke="black" stroke-width="4">
    <defs>
        <pattern id="red-striped" width="10%" height="10%" viewBox="0 0 4 4">
            <line x1="0" y="0" x2="4" y2="0" stroke="red"/>
        </pattern>
        <pattern id="green-striped" width="10%" height="10%" viewBox="0 0 4 4">
            <line x1="0" y="0" x2="4" y2="0" stroke="green"/>
        </pattern>
        <pattern id="purple-striped" width="10%" height="10%" viewBox="0 0 4 4">
            <line x1="0" y="0" x2="4" y2="0" stroke="purple"/>
        </pattern>
    </defs>
    <style>
        .red {
            --card-color: red;
            stroke: var(--card-color);
        }
        .green {
            --card-color: green;
            stroke: var(--card-color);
        }
        .purple {
            --card-color: purple;
            stroke: var(--card-color);
        }

        .red-striped {
            fill: url(#red-striped);
        }
        .green-striped {
            fill: url(#green-striped);
        }
        .purple-striped {
            fill: url(#purple-striped);
        }

        .empty {
            fill: none;
        }
        .solid {
            fill: var(--card-color);
        }
    </style>

    <symbol id="oval" width="50" height="100" viewBox="-10 -10 70 120">
        <path d="M 0,20
                L 0,80
                A 25,20, 0,0,0, 50,80
                L 50,20
                A 25,20, 0,0,0, 0,20" />
    </symbol>

    <symbol id="diamond" width="50" height="100" viewBox="-10 -10 70 120">
        <path d="M 0,50
                L 25,100
                L 50,50
                L 25,0
                z" />
    </symbol>

    <symbol id="squiggle" width="50" height="100" viewBox="-10 -10 70 120">
        <path d="M 20,0
                C 30,0 50,24 50,34
                S 35,56 35,66
                S 50,73 50,83
                S 40,100 30,100
                S 0,76 0,66
                S 15,44 15,34
                S 0,27 0,17
                S 10,0 20,0
                " />
    </symbol>

    <rect x="0" y="0" width="100%" height="100%" fill="white"/>

    <use href="#diamond" x="10%" y="30%" width="20%" height="40%" class="red-striped red" />
    <use href="#oval" x="40%" y="30%" width="20%" height="40%" class="solid purple" />
    <use href="#squiggle" x="70%" y="30%" width="20%" height="40%" class="green-striped green" />
</svg>
